<svg width="142" height="20" viewBox="0 0 142 20" fill="none" xmlns="http://www.w3.org/2000/svg">
<path d="M11.3047 13.2139H14.3564C14.2588 14.3776 13.9333 15.4152 13.3799 16.3267C12.8265 17.23 12.0493 17.9421 11.0483 18.4629C10.0474 18.9837 8.83073 19.2441 7.39844 19.2441C6.2998 19.2441 5.31104 19.0488 4.43213 18.6582C3.55322 18.2594 2.80046 17.6979 2.17383 16.9736C1.5472 16.2412 1.06706 15.3582 0.733398 14.3247C0.407878 13.2912 0.245117 12.1356 0.245117 10.8579V9.38086C0.245117 8.10319 0.411947 6.94759 0.745605 5.91406C1.0874 4.88053 1.57568 3.99756 2.21045 3.26514C2.84521 2.52458 3.60612 1.95898 4.49316 1.56836C5.38835 1.17773 6.39339 0.982422 7.5083 0.982422C8.92432 0.982422 10.1206 1.24284 11.0972 1.76367C12.0737 2.28451 12.8306 3.00472 13.3677 3.92432C13.9129 4.84391 14.2466 5.89779 14.3687 7.08594H11.3169C11.2355 6.32096 11.0565 5.66585 10.7798 5.12061C10.5112 4.57536 10.1125 4.16032 9.5835 3.87549C9.05452 3.58252 8.36279 3.43604 7.5083 3.43604C6.80843 3.43604 6.19808 3.56624 5.67725 3.82666C5.15641 4.08708 4.72103 4.46956 4.37109 4.97412C4.02116 5.47868 3.75667 6.10124 3.57764 6.8418C3.40674 7.57422 3.32129 8.41243 3.32129 9.35645V10.8579C3.32129 11.7531 3.3986 12.5669 3.55322 13.2993C3.71598 14.0236 3.96012 14.6462 4.28564 15.167C4.6193 15.6878 5.04248 16.0907 5.55518 16.3755C6.06787 16.6603 6.68229 16.8027 7.39844 16.8027C8.26921 16.8027 8.97314 16.6644 9.51025 16.3877C10.0555 16.111 10.4665 15.7082 10.7432 15.1792C11.028 14.6421 11.2152 13.987 11.3047 13.2139ZM28.2725 16.5708V19H19.3491V16.5708H28.2725ZM20.2036 1.22656V19H17.1396V1.22656H20.2036ZM44.0073 9.625V10.6016C44.0073 11.9443 43.8324 13.1488 43.4824 14.2148C43.1325 15.2809 42.632 16.1883 41.981 16.937C41.3381 17.6857 40.5649 18.2594 39.6616 18.6582C38.7583 19.0488 37.7573 19.2441 36.6587 19.2441C35.5682 19.2441 34.5713 19.0488 33.668 18.6582C32.7728 18.2594 31.9956 17.6857 31.3364 16.937C30.6772 16.1883 30.1646 15.2809 29.7983 14.2148C29.4403 13.1488 29.2612 11.9443 29.2612 10.6016V9.625C29.2612 8.28223 29.4403 7.08187 29.7983 6.02393C30.1564 4.95785 30.661 4.05046 31.312 3.30176C31.9712 2.54492 32.7484 1.97119 33.6436 1.58057C34.5469 1.1818 35.5438 0.982422 36.6343 0.982422C37.7329 0.982422 38.7339 1.1818 39.6372 1.58057C40.5405 1.97119 41.3177 2.54492 41.9688 3.30176C42.6198 4.05046 43.1203 4.95785 43.4702 6.02393C43.8283 7.08187 44.0073 8.28223 44.0073 9.625ZM40.9434 10.6016V9.60059C40.9434 8.60775 40.8457 7.73291 40.6504 6.97607C40.4632 6.2111 40.1825 5.57227 39.8081 5.05957C39.4419 4.53874 38.9902 4.14811 38.4531 3.8877C37.916 3.61914 37.3097 3.48486 36.6343 3.48486C35.9588 3.48486 35.3566 3.61914 34.8276 3.8877C34.2987 4.14811 33.847 4.53874 33.4727 5.05957C33.1064 5.57227 32.8257 6.2111 32.6304 6.97607C32.4351 7.73291 32.3374 8.60775 32.3374 9.60059V10.6016C32.3374 11.5944 32.4351 12.4733 32.6304 13.2383C32.8257 14.0033 33.1105 14.6502 33.4849 15.1792C33.8674 15.7 34.3231 16.0947 34.8521 16.3633C35.381 16.6237 35.9832 16.7539 36.6587 16.7539C37.3423 16.7539 37.9486 16.6237 38.4775 16.3633C39.0065 16.0947 39.4541 15.7 39.8203 15.1792C40.1865 14.6502 40.4632 14.0033 40.6504 13.2383C40.8457 12.4733 40.9434 11.5944 40.9434 10.6016ZM57.0444 1.22656H60.0962V13.104C60.0962 14.4549 59.8032 15.5861 59.2173 16.4976C58.6313 17.409 57.8338 18.0967 56.8247 18.5605C55.8237 19.0163 54.7048 19.2441 53.4678 19.2441C52.1901 19.2441 51.0508 19.0163 50.0498 18.5605C49.0488 18.0967 48.2594 17.409 47.6816 16.4976C47.112 15.5861 46.8271 14.4549 46.8271 13.104V1.22656H49.8789V13.104C49.8789 13.9585 50.0254 14.6624 50.3184 15.2158C50.6113 15.7611 51.0264 16.1639 51.5635 16.4243C52.1006 16.6847 52.7354 16.8149 53.4678 16.8149C54.2002 16.8149 54.8309 16.6847 55.3599 16.4243C55.897 16.1639 56.312 15.7611 56.605 15.2158C56.8979 14.6624 57.0444 13.9585 57.0444 13.104V1.22656ZM68.5923 19H64.7959L64.8203 16.5708H68.5923C69.6909 16.5708 70.6105 16.3307 71.3511 15.8506C72.0998 15.3704 72.6613 14.6828 73.0356 13.7876C73.4181 12.8924 73.6094 11.8263 73.6094 10.5894V9.625C73.6094 8.66471 73.4995 7.81429 73.2798 7.07373C73.0682 6.33317 72.7508 5.71061 72.3276 5.20605C71.9126 4.7015 71.3999 4.31901 70.7896 4.05859C70.1873 3.79818 69.4915 3.66797 68.7021 3.66797H64.7227V1.22656H68.7021C69.8822 1.22656 70.9604 1.42594 71.937 1.82471C72.9136 2.21533 73.7559 2.78092 74.4639 3.52148C75.18 4.26204 75.7293 5.14909 76.1118 6.18262C76.4943 7.21615 76.6855 8.37174 76.6855 9.64941V10.5894C76.6855 11.867 76.4943 13.0226 76.1118 14.0562C75.7293 15.0897 75.18 15.9767 74.4639 16.7173C73.7477 17.4497 72.8932 18.0153 71.9004 18.4141C70.9157 18.8047 69.813 19 68.5923 19ZM66.4927 1.22656V19H63.4287V1.22656H66.4927ZM89.4297 1.22656V19H85.7676V1.22656H89.4297ZM96.5098 8.81934V11.6758H88.4287V8.81934H96.5098ZM97.3643 1.22656V4.09521H88.4287V1.22656H97.3643ZM110.914 16.1436V19H101.966V16.1436H110.914ZM103.15 1.22656V19H99.4883V1.22656H103.15ZM124.94 16.1436V19H115.479V16.1436H124.94ZM116.676 1.22656V19H113.014V1.22656H116.676ZM123.707 8.46533V11.2485H115.479V8.46533H123.707ZM124.928 1.22656V4.09521H115.479V1.22656H124.928ZM130.091 1.22656L133.436 7.42773L136.781 1.22656H140.968L135.804 10.04L141.102 19H136.878L133.436 12.6768L129.994 19H125.746L131.056 10.04L125.88 1.22656H130.091Z" fill="white"/>
</svg>
